G04*
G04 #@! TF.GenerationSoftware,Altium Limited,Altium Designer,18.1.7 (191)*
G04*
G04 Layer_Physical_Order=1*
G04 Layer_Color=255*
%FSLAX43Y43*%
%MOMM*%
G71*
G01*
G75*
%ADD15R,3.000X2.100*%
%ADD16R,1.300X0.800*%
%ADD17R,1.800X0.700*%
%ADD18C,0.300*%
%ADD19C,0.500*%
%ADD20C,1.100*%
%ADD21O,4.000X1.600*%
%ADD22C,0.800*%
G36*
X9796Y204D02*
X204Y204D01*
X204Y36796D01*
X9796Y36796D01*
X9796Y204D01*
D02*
G37*
%LPC*%
G36*
X5925Y34150D02*
X3725D01*
Y33750D01*
X3323Y33347D01*
X3245Y33232D01*
X3218Y33095D01*
Y32498D01*
X805Y30084D01*
X727Y29969D01*
X700Y29832D01*
Y22588D01*
X727Y22451D01*
X805Y22336D01*
X4043Y19097D01*
Y17000D01*
X3548Y16504D01*
X3470Y16389D01*
X3443Y16252D01*
Y10200D01*
X3470Y10063D01*
X3548Y9948D01*
X4450Y9045D01*
Y8650D01*
X6150D01*
Y9773D01*
X6150Y9850D01*
X6150D01*
Y9900D01*
X6150D01*
Y11100D01*
X4657D01*
Y12400D01*
X6150D01*
Y13045D01*
X6826Y13721D01*
X6943Y13673D01*
Y8068D01*
X6265Y7390D01*
X6150Y7350D01*
Y7350D01*
X6150Y7350D01*
X4450D01*
Y6150D01*
X4450Y6150D01*
Y6100D01*
X4450D01*
X4450Y6023D01*
Y4900D01*
X6150D01*
Y5545D01*
X8052Y7448D01*
X8130Y7563D01*
X8157Y7700D01*
Y20370D01*
X8130Y20507D01*
X8052Y20623D01*
X5257Y23418D01*
Y24054D01*
X5746Y24543D01*
X5870D01*
X6007Y24570D01*
X6122Y24648D01*
X6327Y24853D01*
X6405Y24968D01*
X6432Y25105D01*
Y27094D01*
X6559Y27119D01*
X6620Y26972D01*
X6740Y26815D01*
X6897Y26695D01*
X7079Y26619D01*
X7275Y26594D01*
X7471Y26619D01*
X7653Y26695D01*
X7810Y26815D01*
X7930Y26972D01*
X8006Y27154D01*
X8031Y27350D01*
X8006Y27546D01*
X7930Y27728D01*
X7810Y27885D01*
X7653Y28005D01*
X7471Y28081D01*
X7275Y28106D01*
X7079Y28081D01*
X6897Y28005D01*
X6740Y27885D01*
X6620Y27728D01*
X6544Y27546D01*
X6530Y27434D01*
X6428Y27416D01*
X6400Y27419D01*
X6327Y27527D01*
X6002Y27852D01*
X5925Y27904D01*
Y29150D01*
X3932D01*
Y29947D01*
X4035Y30050D01*
X5925D01*
Y31050D01*
Y31921D01*
X6052Y32018D01*
X6200Y31988D01*
X6414Y32031D01*
X6486Y31988D01*
X6531Y31947D01*
X6519Y31850D01*
X6544Y31654D01*
X6620Y31472D01*
X6740Y31315D01*
X6897Y31195D01*
X7079Y31119D01*
X7275Y31094D01*
X7471Y31119D01*
X7653Y31195D01*
X7810Y31315D01*
X7930Y31472D01*
X8006Y31654D01*
X8031Y31850D01*
X8006Y32046D01*
X7930Y32228D01*
X7810Y32385D01*
X7653Y32505D01*
X7471Y32581D01*
X7275Y32606D01*
X7079Y32581D01*
X6925Y32517D01*
X6808Y32583D01*
X6812Y32600D01*
X6765Y32834D01*
X6633Y33033D01*
X6434Y33165D01*
X6200Y33212D01*
X6052Y33182D01*
X5925Y33279D01*
Y34150D01*
D02*
G37*
%LPD*%
G36*
X5718Y26150D02*
X3725D01*
Y26150D01*
X3614Y26189D01*
Y27011D01*
X3725Y27050D01*
Y27050D01*
X5718D01*
Y26150D01*
D02*
G37*
D15*
X2550Y1700D02*
D03*
Y18050D02*
D03*
D16*
X5300Y4250D02*
D03*
Y5500D02*
D03*
Y6750D02*
D03*
Y8000D02*
D03*
Y9250D02*
D03*
Y15500D02*
D03*
Y14250D02*
D03*
Y13000D02*
D03*
Y11750D02*
D03*
Y10500D02*
D03*
D17*
X4825Y25600D02*
D03*
Y33600D02*
D03*
Y26600D02*
D03*
Y32600D02*
D03*
Y27600D02*
D03*
Y31600D02*
D03*
Y28600D02*
D03*
Y30600D02*
D03*
Y29600D02*
D03*
D18*
X1057Y29832D02*
X3575Y32350D01*
X1057Y22588D02*
Y29832D01*
Y22588D02*
X4400Y19245D01*
X1557Y29625D02*
X3532Y31600D01*
X1557Y22795D02*
Y29625D01*
Y22795D02*
X4900Y19452D01*
X2757Y28157D02*
X3575Y28975D01*
Y30095D01*
X4280Y30800D01*
X3807Y28500D02*
X4725D01*
X3257Y27950D02*
X3807Y28500D01*
X3257Y23499D02*
Y27950D01*
X2757Y23292D02*
X6300Y19749D01*
X2757Y23292D02*
Y28157D01*
X3257Y23499D02*
X6800Y19956D01*
X7300Y7920D02*
Y20163D01*
X6130Y6750D02*
X7300Y7920D01*
X5300Y6750D02*
X6130D01*
X3532Y31600D02*
X4825D01*
X4080Y33600D02*
X4825D01*
X3575Y33095D02*
X4080Y33600D01*
X3575Y32350D02*
Y33095D01*
X4625Y30800D02*
X4825Y30600D01*
X4280Y30800D02*
X4625D01*
X7800Y7700D02*
Y20370D01*
X4900Y23270D02*
X7800Y20370D01*
X4900Y23270D02*
Y24201D01*
X4400Y23063D02*
X7300Y20163D01*
X4400Y23063D02*
Y24408D01*
X6800Y14200D02*
Y19956D01*
X6300Y14925D02*
Y19749D01*
X4900Y16645D02*
Y19452D01*
X4400Y16852D02*
Y19245D01*
X5600Y5500D02*
X7800Y7700D01*
X5300Y5500D02*
X5600D01*
Y13000D02*
X6800Y14200D01*
X5300Y13000D02*
X5600D01*
X5625Y14250D02*
X6300Y14925D01*
X5300Y14250D02*
X5625D01*
X4300Y16045D02*
X4900Y16645D01*
X4750Y9250D02*
X5300D01*
X3800Y10200D02*
X4750Y9250D01*
X3800Y10200D02*
Y16252D01*
X4400Y16852D01*
X5200Y10600D02*
X5300Y10500D01*
X4500Y10600D02*
X5200D01*
X4300Y10800D02*
X4500Y10600D01*
X4300Y10800D02*
Y16045D01*
X4725Y28500D02*
X4825Y28600D01*
X4400Y24408D02*
X4825Y24833D01*
Y25600D01*
Y27600D02*
X5750D01*
X6075Y27275D01*
Y25105D02*
Y27275D01*
X5870Y24900D02*
X6075Y25105D01*
X5599Y24900D02*
X5870D01*
X4900Y24201D02*
X5599Y24900D01*
D19*
X2157Y28957D02*
X2800Y29600D01*
X2157Y23044D02*
Y28957D01*
Y23044D02*
X5700Y19501D01*
X4007Y26600D02*
X4825D01*
X5700Y15900D02*
Y19501D01*
X5300Y15500D02*
X5700Y15900D01*
X4825Y32600D02*
X6200D01*
D20*
X7275Y27350D02*
D03*
Y31850D02*
D03*
D21*
Y23750D02*
D03*
Y35450D02*
D03*
D22*
X6327Y29600D02*
D03*
X6544Y8600D02*
D03*
X6500Y12100D02*
D03*
X4007Y26600D02*
D03*
X2800Y29600D02*
D03*
X6200Y32600D02*
D03*
M02*
